<svg version="1.1" id="Layer_1" xmlns="http://www.w3.org/2000/svg" xmlns:xlink="http://www.w3.org/1999/xlink" x="0px" y="0px"
	 width="100%" viewBox="0 0 1280 1280" enable-background="new 0 0 1280 1280" xml:space="preserve">
<path fill="#1D1D1D" opacity="1.000000" stroke="none" 
	d="
M685.000000,1281.000000 
	C456.666656,1281.000000 228.833328,1281.000000 1.000000,1281.000000 
	C1.000000,854.333313 1.000000,427.666656 1.000000,1.000000 
	C427.666656,1.000000 854.333313,1.000000 1281.000000,1.000000 
	C1281.000000,427.666656 1281.000000,854.333313 1281.000000,1281.000000 
	C1082.500000,1281.000000 884.000000,1281.000000 685.000000,1281.000000 
M728.914795,801.209229 
	C774.968445,801.209229 821.022095,801.209229 867.519409,801.209229 
	C867.519409,798.949524 867.519409,797.315491 867.519409,795.681519 
	C867.519470,692.787537 867.521057,589.893555 867.505371,486.999573 
	C867.505127,485.349762 867.293945,483.699982 867.436035,481.533356 
	C866.956909,481.339478 866.477844,481.145599 865.087097,480.717133 
	C820.545288,480.705444 776.003479,480.691742 731.461670,480.692749 
	C730.307190,480.692780 729.152649,480.852661 727.244629,480.804626 
	C727.039856,481.194000 726.835083,481.583405 726.377686,482.835999 
	C726.364258,587.620605 726.349976,692.405212 726.350403,797.189819 
	C726.350403,798.174072 726.546265,799.158264 726.700256,800.834900 
	C727.133423,800.886658 727.566589,800.938416 728.914795,801.209229 
M436.500214,480.681396 
	C425.722961,480.681396 414.945709,480.681396 404.078308,480.681396 
	C404.078308,587.812439 404.078308,694.337891 404.078308,800.849915 
	C451.128143,800.849915 497.831512,800.849915 544.580444,800.849915 
	C544.580444,694.037415 544.580444,587.620239 544.580444,480.681396 
	C508.727783,480.681396 473.114014,480.681396 436.500214,480.681396 
z"/>
<path fill="#FFFFFF" opacity="1.000000" stroke="none" 
	d="
M727.998169,480.937988 
	C729.152649,480.852661 730.307190,480.692780 731.461670,480.692749 
	C776.003479,480.691742 820.545288,480.705444 865.616333,481.036865 
	C866.490845,481.587769 866.835999,481.818970 867.181213,482.050171 
	C867.293945,483.699982 867.505127,485.349762 867.505371,486.999573 
	C867.521057,589.893555 867.519470,692.787537 867.519409,795.681519 
	C867.519409,797.315491 867.519409,798.949524 867.519409,801.209229 
	C821.022095,801.209229 774.968445,801.209229 728.289673,800.876343 
	C727.326599,800.409851 726.988647,800.276184 726.650635,800.142517 
	C726.546265,799.158264 726.350403,798.174072 726.350403,797.189819 
	C726.349976,692.405212 726.364258,587.620605 726.789551,482.319702 
	C727.467041,481.514923 727.732605,481.226471 727.998169,480.937988 
z"/>
<path fill="#FFFFFF" opacity="1.000000" stroke="none" 
	d="
M437.000244,480.681396 
	C473.114014,480.681396 508.727783,480.681396 544.580444,480.681396 
	C544.580444,587.620239 544.580444,694.037415 544.580444,800.849915 
	C497.831512,800.849915 451.128143,800.849915 404.078308,800.849915 
	C404.078308,694.337891 404.078308,587.812439 404.078308,480.681396 
	C414.945709,480.681396 425.722961,480.681396 437.000244,480.681396 
z"/>
<path fill="#EEEEEE" opacity="1.000000" stroke="none" 
	d="
M867.308594,481.791748 
	C866.835999,481.818970 866.490845,481.587769 866.072144,481.154144 
	C866.477844,481.145599 866.956909,481.339478 867.308594,481.791748 
z"/>
<path fill="#EEEEEE" opacity="1.000000" stroke="none" 
	d="
M727.621399,480.871338 
	C727.732605,481.226471 727.467041,481.514923 726.915894,481.888062 
	C726.835083,481.583405 727.039856,481.194000 727.621399,480.871338 
z"/>
<path fill="#EEEEEE" opacity="1.000000" stroke="none" 
	d="
M726.675415,800.488708 
	C726.988647,800.276184 727.326599,800.409851 727.832153,800.766846 
	C727.566589,800.938416 727.133423,800.886658 726.675415,800.488708 
z"/>
</svg>